<svg width="220" height="220" viewBox="0 0 220 220" fill="none" xmlns="http://www.w3.org/2000/svg">
<rect width="220" height="220" rx="65" fill="url(#paint0_linear_25_2)"/>
<path fill-rule="evenodd" clip-rule="evenodd" d="M110 176.833C143.137 176.833 170 151.836 170 121L108 121C95.2326 121 89.0377 121 84.1868 121C83.8576 121 83.5346 121 83.2162 121C90.1037 121 98.5663 121 110 121L190 121C190 162.421 154.183 196 110 196C65.8172 196 30 162.421 30 121C49.7056 121 58.57 121 69.8037 121C65.2443 121 59.142 121 50 121C50 151.836 76.8629 176.833 110 176.833Z" fill="white"/>
<ellipse cx="40" cy="121.5" rx="10" ry="10.5" fill="white"/>
<ellipse cx="180" cy="120.5" rx="10" ry="10.5" fill="white"/>
<defs>
<linearGradient id="paint0_linear_25_2" x1="110" y1="0" x2="110" y2="220" gradientUnits="userSpaceOnUse">
<stop stop-color="#1EAEFE"/>
<stop offset="1" stop-color="#0373FF"/>
</linearGradient>
</defs>
</svg>
